<?xml version="1.0" encoding="UTF-8" standalone="no"?>
<!DOCTYPE svg PUBLIC "-//W3C//DTD SVG 1.1//EN" "http://www.w3.org/Graphics/SVG/1.1/DTD/svg11.dtd">
<svg width="100%" height="100%" viewBox="0 0 749 533" version="1.1" xmlns="http://www.w3.org/2000/svg" xmlns:xlink="http://www.w3.org/1999/xlink" xml:space="preserve" xmlns:serif="http://www.serif.com/" style="fill-rule:evenodd;clip-rule:evenodd;stroke-linejoin:round;stroke-miterlimit:2;">
    <g transform="matrix(0.5,0,0,0.5,-375.672,-508.106)">
        <g>
            <g transform="matrix(3.15002,0,0,3.15002,-1190.94,-3574.92)">
                <g>
                    <g transform="matrix(287.559,0,0,287.559,603.079,1783.18)">
                        <path d="M0.544,-0.744L0.629,-0.733C0.627,-0.717 0.625,-0.701 0.622,-0.686C0.619,-0.671 0.617,-0.656 0.614,-0.641L0.825,-0.641L0.825,-0.56L0.788,-0.56C0.787,-0.48 0.781,-0.409 0.77,-0.346C0.759,-0.283 0.737,-0.224 0.704,-0.17C0.739,-0.12 0.784,-0.073 0.837,-0.029L0.78,0.041C0.754,0.017 0.73,-0.006 0.709,-0.029C0.687,-0.051 0.667,-0.073 0.65,-0.096C0.61,-0.049 0.558,-0.004 0.493,0.041L0.434,-0.029C0.505,-0.073 0.561,-0.12 0.6,-0.171C0.566,-0.229 0.541,-0.297 0.525,-0.375C0.516,-0.359 0.507,-0.343 0.498,-0.327L0.43,-0.389C0.463,-0.44 0.489,-0.497 0.507,-0.558C0.525,-0.619 0.537,-0.681 0.544,-0.744ZM0.586,-0.526C0.593,-0.425 0.615,-0.335 0.652,-0.258C0.671,-0.3 0.684,-0.346 0.691,-0.395C0.698,-0.444 0.701,-0.499 0.701,-0.56L0.596,-0.56C0.593,-0.548 0.589,-0.537 0.586,-0.526ZM0.052,-0.394C0.1,-0.422 0.139,-0.452 0.169,-0.484L0.077,-0.484L0.077,-0.571L0.228,-0.571L0.228,-0.734L0.315,-0.734L0.315,-0.571L0.459,-0.571L0.459,-0.484L0.395,-0.484C0.408,-0.472 0.42,-0.459 0.431,-0.446C0.442,-0.433 0.452,-0.419 0.463,-0.404L0.395,-0.359C0.385,-0.375 0.373,-0.392 0.36,-0.411C0.347,-0.429 0.332,-0.448 0.315,-0.469L0.315,-0.341L0.228,-0.341L0.228,-0.442C0.212,-0.42 0.194,-0.398 0.175,-0.377C0.156,-0.356 0.137,-0.339 0.118,-0.328L0.052,-0.394ZM0.33,-0.619L0.399,-0.728L0.467,-0.695L0.402,-0.584L0.33,-0.619ZM0.073,-0.683L0.138,-0.725L0.221,-0.626L0.158,-0.584L0.073,-0.683ZM0.047,-0.033C0.075,-0.039 0.102,-0.045 0.128,-0.052C0.154,-0.059 0.178,-0.067 0.2,-0.076C0.163,-0.095 0.125,-0.112 0.085,-0.129C0.113,-0.161 0.136,-0.191 0.153,-0.22L0.074,-0.22L0.074,-0.295L0.19,-0.295C0.195,-0.308 0.2,-0.321 0.204,-0.335L0.296,-0.319C0.293,-0.31 0.289,-0.302 0.286,-0.295L0.465,-0.295L0.465,-0.22L0.434,-0.22C0.429,-0.191 0.42,-0.164 0.409,-0.141C0.397,-0.118 0.382,-0.097 0.365,-0.079C0.384,-0.068 0.403,-0.057 0.42,-0.046C0.436,-0.035 0.452,-0.025 0.466,-0.014L0.401,0.043C0.368,0.02 0.332,-0.003 0.295,-0.024C0.268,-0.008 0.237,0.005 0.203,0.016C0.168,0.027 0.131,0.036 0.091,0.043L0.047,-0.033ZM0.211,-0.159C0.236,-0.147 0.261,-0.135 0.284,-0.123C0.299,-0.136 0.312,-0.15 0.323,-0.166C0.334,-0.181 0.342,-0.199 0.348,-0.22L0.25,-0.22C0.238,-0.198 0.225,-0.178 0.211,-0.159Z" style="fill:rgb(109,91,80);fill-rule:nonzero;"/>
                    </g>
                    <g transform="matrix(287.559,0,0,287.559,856.993,1783.18)">
                        <path d="M0.164,0.029C0.145,0.029 0.131,0.028 0.12,0.025C0.109,0.022 0.097,0.018 0.084,0.013L0.075,-0.072C0.092,-0.067 0.105,-0.063 0.115,-0.06C0.124,-0.057 0.137,-0.055 0.153,-0.055C0.172,-0.055 0.188,-0.06 0.199,-0.071C0.21,-0.082 0.219,-0.101 0.224,-0.13C0.229,-0.158 0.232,-0.199 0.232,-0.253L0.232,-0.255C0.211,-0.231 0.19,-0.21 0.168,-0.191C0.146,-0.172 0.121,-0.154 0.092,-0.135L0.047,-0.215C0.083,-0.235 0.115,-0.257 0.143,-0.282C0.171,-0.306 0.198,-0.335 0.224,-0.37C0.219,-0.407 0.211,-0.441 0.2,-0.474C0.185,-0.463 0.169,-0.452 0.152,-0.442C0.135,-0.431 0.116,-0.419 0.096,-0.408L0.054,-0.485C0.099,-0.51 0.136,-0.534 0.166,-0.557C0.155,-0.578 0.143,-0.599 0.13,-0.619C0.117,-0.639 0.102,-0.659 0.086,-0.678L0.156,-0.733C0.186,-0.697 0.212,-0.659 0.233,-0.618C0.254,-0.64 0.276,-0.667 0.299,-0.698L0.361,-0.647C0.33,-0.602 0.3,-0.564 0.27,-0.534C0.3,-0.451 0.316,-0.357 0.317,-0.252C0.318,-0.191 0.315,-0.142 0.309,-0.105C0.302,-0.068 0.293,-0.039 0.28,-0.02C0.267,-0.001 0.25,0.012 0.231,0.019C0.212,0.026 0.189,0.029 0.164,0.029ZM0.338,-0.08C0.367,-0.083 0.398,-0.086 0.43,-0.089C0.461,-0.091 0.493,-0.095 0.525,-0.098L0.525,-0.262L0.355,-0.262L0.355,-0.625L0.525,-0.625L0.525,-0.738L0.619,-0.738L0.619,-0.625L0.791,-0.625L0.791,-0.262L0.619,-0.262L0.619,-0.108C0.635,-0.11 0.651,-0.112 0.666,-0.114C0.681,-0.116 0.695,-0.118 0.709,-0.12C0.704,-0.138 0.7,-0.155 0.695,-0.172C0.69,-0.189 0.686,-0.204 0.681,-0.219L0.762,-0.234C0.787,-0.165 0.805,-0.085 0.817,0.004L0.737,0.029C0.734,0.006 0.731,-0.017 0.726,-0.04C0.69,-0.033 0.651,-0.027 0.608,-0.021C0.565,-0.014 0.523,-0.008 0.48,-0.004C0.437,0.002 0.397,0.005 0.36,0.008L0.338,-0.08ZM0.448,-0.357L0.525,-0.357L0.525,-0.53L0.448,-0.53L0.448,-0.357ZM0.619,-0.357L0.697,-0.357L0.697,-0.53L0.619,-0.53L0.619,-0.357Z" style="fill:rgb(109,91,80);fill-rule:nonzero;"/>
                    </g>
                </g>
            </g>
            <g transform="matrix(2.48713,0,0,2.48713,-1156.6,-4638.99)">
                <g transform="matrix(141.724,0,0,141.724,773.343,2377.31)">
                    <path d="M0.328,0.012C0.51,0.012 0.62,-0.07 0.62,-0.212C0.62,-0.321 0.554,-0.398 0.396,-0.433L0.337,-0.445C0.269,-0.46 0.24,-0.478 0.24,-0.512C0.24,-0.543 0.266,-0.57 0.327,-0.57C0.39,-0.57 0.419,-0.539 0.424,-0.492L0.61,-0.492C0.609,-0.633 0.501,-0.73 0.327,-0.73C0.156,-0.73 0.036,-0.635 0.036,-0.498C0.036,-0.386 0.114,-0.325 0.241,-0.298L0.313,-0.282C0.393,-0.265 0.421,-0.245 0.421,-0.212C0.421,-0.177 0.388,-0.148 0.326,-0.148C0.25,-0.148 0.206,-0.184 0.204,-0.25L0.019,-0.25C0.019,-0.069 0.141,0.012 0.328,0.012Z" style="fill:rgb(109,91,80);fill-rule:nonzero;"/>
                </g>
                <g transform="matrix(141.724,0,0,141.724,863.858,2377.31)">
                    <path d="M0.455,-0.719L0.455,-0.275C0.455,-0.208 0.407,-0.16 0.34,-0.16C0.272,-0.16 0.225,-0.208 0.225,-0.275L0.225,-0.719L0.029,-0.719L0.029,-0.259C0.029,-0.094 0.153,0.008 0.34,0.009C0.524,0.008 0.65,-0.094 0.65,-0.259L0.65,-0.719L0.455,-0.719Z" style="fill:rgb(109,91,80);fill-rule:nonzero;"/>
                </g>
                <g transform="matrix(141.724,0,0,141.724,960.186,2377.31)">
                    <path d="M0.031,0L0.318,0C0.543,0 0.68,-0.136 0.68,-0.359C0.68,-0.583 0.542,-0.719 0.315,-0.719L0.031,-0.719L0.031,0ZM0.234,-0.172L0.234,-0.547L0.306,-0.547C0.426,-0.547 0.479,-0.489 0.479,-0.359C0.479,-0.229 0.428,-0.172 0.311,-0.172L0.234,-0.172Z" style="fill:rgb(109,91,80);fill-rule:nonzero;"/>
                </g>
                <g transform="matrix(141.724,0,0,141.724,1059.56,2377.31)">
                    <path d="M0.727,-0.359C0.727,-0.6 0.572,-0.73 0.378,-0.73C0.181,-0.73 0.021,-0.6 0.021,-0.359C0.021,-0.121 0.181,0.012 0.378,0.012C0.572,0.012 0.727,-0.119 0.727,-0.359ZM0.526,-0.359C0.526,-0.23 0.474,-0.16 0.378,-0.16C0.28,-0.16 0.228,-0.23 0.229,-0.359C0.228,-0.489 0.279,-0.559 0.377,-0.559C0.473,-0.559 0.526,-0.489 0.526,-0.359Z" style="fill:rgb(109,91,80);fill-rule:nonzero;"/>
                </g>
                <g transform="matrix(141.724,0,0,141.724,1165.57,2377.31)">
                    <path d="M0.031,0L0.234,0L0.234,-0.217L0.306,-0.295L0.493,0L0.731,0L0.44,-0.433L0.7,-0.719L0.456,-0.719L0.234,-0.466L0.234,-0.719L0.031,-0.719L0.031,0Z" style="fill:rgb(109,91,80);fill-rule:nonzero;"/>
                </g>
                <g transform="matrix(141.724,0,0,141.724,1268.13,2377.31)">
                    <path d="M0.455,-0.719L0.455,-0.275C0.455,-0.208 0.407,-0.16 0.34,-0.16C0.272,-0.16 0.225,-0.208 0.225,-0.275L0.225,-0.719L0.029,-0.719L0.029,-0.259C0.029,-0.094 0.153,0.008 0.34,0.009C0.524,0.008 0.65,-0.094 0.65,-0.259L0.65,-0.719L0.455,-0.719Z" style="fill:rgb(109,91,80);fill-rule:nonzero;"/>
                </g>
            </g>
        </g>
    </g>
</svg>
